<svg width="330" height="116" viewBox="0 0 330 116" fill="none" xmlns="http://www.w3.org/2000/svg">
<g filter="url(#filter0_d_40_595)">
<rect x="15" y="15" width="300" height="86" rx="5" fill="white"/>
</g>
<path d="M109 75H120.441C121.104 75 121.742 74.7761 122.228 74.3732C122.714 73.9703 123.012 73.4182 123.062 72.8275L126 48" stroke="#F72D57" stroke-width="2" stroke-miterlimit="10" stroke-linecap="round"/>
<path d="M118 48L119.27 43.2L123 42" stroke="#F72D57" stroke-width="2" stroke-linecap="round" stroke-linejoin="round"/>
<path d="M106 48L127 48" stroke="#F72D57" stroke-width="2" stroke-miterlimit="10" stroke-linecap="round"/>
<path d="M103.75 66.25L109.663 60.3368C110.008 59.9921 110.417 59.7187 110.868 59.5323C111.318 59.3458 111.801 59.2499 112.288 59.25H112.5C113.428 59.25 114.318 59.6187 114.975 60.2751C115.631 60.9315 116 61.8217 116 62.75C116 63.6783 115.631 64.5685 114.975 65.2249C114.318 65.8813 113.428 66.25 112.5 66.25H84.5C83.5717 66.25 82.6815 65.8813 82.0251 65.2249C81.3687 64.5685 81 63.6783 81 62.75C81 61.8217 81.3687 60.9315 82.0251 60.2751C82.6815 59.6187 83.5717 59.25 84.5 59.25H92.4013C95.1855 59.2501 97.8558 60.3561 99.8247 62.3247L103.75 66.25ZM82.75 66.25H114.25V69.75C114.25 71.1424 113.697 72.4777 112.712 73.4623C111.728 74.4469 110.392 75 109 75H88C86.6076 75 85.2723 74.4469 84.2877 73.4623C83.3031 72.4777 82.75 71.1424 82.75 69.75V66.25Z" stroke="#F72D57" stroke-width="2" stroke-linecap="round" stroke-linejoin="round"/>
<path d="M98.5018 54H98.5M98.5 47C90.4098 47 83.744 50.073 82.8515 57.5C82.736 58.4625 83.534 59.25 84.5 59.25H112.5C113.466 59.25 114.264 58.4625 114.149 57.5C113.256 50.073 106.59 47 98.5 47ZM89.7518 54H89.75H89.7518ZM103.752 52.25H103.75H103.752Z" stroke="#F72D57" stroke-width="2" stroke-linecap="round" stroke-linejoin="round"/>
<path d="M148.032 57.624C148.032 55.992 148.4 54.528 149.136 53.232C149.872 51.92 150.872 50.896 152.136 50.16C153.416 49.424 154.832 49.056 156.384 49.056C158.208 49.056 159.8 49.496 161.16 50.376C162.52 51.256 163.512 52.504 164.136 54.12H161.52C161.056 53.112 160.384 52.336 159.504 51.792C158.64 51.248 157.6 50.976 156.384 50.976C155.216 50.976 154.168 51.248 153.24 51.792C152.312 52.336 151.584 53.112 151.056 54.12C150.528 55.112 150.264 56.28 150.264 57.624C150.264 58.952 150.528 60.12 151.056 61.128C151.584 62.12 152.312 62.888 153.24 63.432C154.168 63.976 155.216 64.248 156.384 64.248C157.6 64.248 158.64 63.984 159.504 63.456C160.384 62.912 161.056 62.136 161.52 61.128H164.136C163.512 62.728 162.52 63.968 161.16 64.848C159.8 65.712 158.208 66.144 156.384 66.144C154.832 66.144 153.416 65.784 152.136 65.064C150.872 64.328 149.872 63.312 149.136 62.016C148.4 60.72 148.032 59.256 148.032 57.624ZM173.123 66.216C171.891 66.216 170.771 65.936 169.763 65.376C168.771 64.816 167.987 64.024 167.411 63C166.851 61.96 166.571 60.76 166.571 59.4C166.571 58.056 166.859 56.872 167.435 55.848C168.027 54.808 168.827 54.016 169.835 53.472C170.843 52.912 171.971 52.632 173.219 52.632C174.467 52.632 175.595 52.912 176.603 53.472C177.611 54.016 178.403 54.8 178.979 55.824C179.571 56.848 179.867 58.04 179.867 59.4C179.867 60.76 179.563 61.96 178.955 63C178.363 64.024 177.555 64.816 176.531 65.376C175.507 65.936 174.371 66.216 173.123 66.216ZM173.123 64.296C173.907 64.296 174.643 64.112 175.331 63.744C176.019 63.376 176.571 62.824 176.987 62.088C177.419 61.352 177.635 60.456 177.635 59.4C177.635 58.344 177.427 57.448 177.011 56.712C176.595 55.976 176.051 55.432 175.379 55.08C174.707 54.712 173.979 54.528 173.195 54.528C172.395 54.528 171.659 54.712 170.987 55.08C170.331 55.432 169.803 55.976 169.403 56.712C169.003 57.448 168.803 58.344 168.803 59.4C168.803 60.472 168.995 61.376 169.379 62.112C169.779 62.848 170.307 63.4 170.963 63.768C171.619 64.12 172.339 64.296 173.123 64.296ZM198.555 52.608C199.579 52.608 200.491 52.824 201.291 53.256C202.091 53.672 202.723 54.304 203.187 55.152C203.651 56 203.883 57.032 203.883 58.248V66H201.723V58.56C201.723 57.248 201.395 56.248 200.739 55.56C200.099 54.856 199.227 54.504 198.123 54.504C196.987 54.504 196.083 54.872 195.411 55.608C194.739 56.328 194.403 57.376 194.403 58.752V66H192.243V58.56C192.243 57.248 191.915 56.248 191.259 55.56C190.619 54.856 189.747 54.504 188.643 54.504C187.507 54.504 186.603 54.872 185.931 55.608C185.259 56.328 184.923 57.376 184.923 58.752V66H182.739V52.848H184.923V54.744C185.355 54.056 185.931 53.528 186.651 53.16C187.387 52.792 188.195 52.608 189.075 52.608C190.179 52.608 191.155 52.856 192.003 53.352C192.851 53.848 193.483 54.576 193.899 55.536C194.267 54.608 194.875 53.888 195.723 53.376C196.571 52.864 197.515 52.608 198.555 52.608ZM209.649 55.296C210.097 54.512 210.753 53.872 211.617 53.376C212.481 52.88 213.465 52.632 214.569 52.632C215.753 52.632 216.817 52.912 217.761 53.472C218.705 54.032 219.449 54.824 219.993 55.848C220.537 56.856 220.809 58.032 220.809 59.376C220.809 60.704 220.537 61.888 219.993 62.928C219.449 63.968 218.697 64.776 217.737 65.352C216.793 65.928 215.737 66.216 214.569 66.216C213.433 66.216 212.433 65.968 211.569 65.472C210.721 64.976 210.081 64.344 209.649 63.576V66H207.465V48.24H209.649V55.296ZM218.577 59.376C218.577 58.384 218.377 57.52 217.977 56.784C217.577 56.048 217.033 55.488 216.345 55.104C215.673 54.72 214.929 54.528 214.113 54.528C213.313 54.528 212.569 54.728 211.881 55.128C211.209 55.512 210.665 56.08 210.249 56.832C209.849 57.568 209.649 58.424 209.649 59.4C209.649 60.392 209.849 61.264 210.249 62.016C210.665 62.752 211.209 63.32 211.881 63.72C212.569 64.104 213.313 64.296 214.113 64.296C214.929 64.296 215.673 64.104 216.345 63.72C217.033 63.32 217.577 62.752 217.977 62.016C218.377 61.264 218.577 60.384 218.577 59.376ZM229.42 66.216C228.188 66.216 227.068 65.936 226.06 65.376C225.068 64.816 224.284 64.024 223.708 63C223.148 61.96 222.868 60.76 222.868 59.4C222.868 58.056 223.156 56.872 223.732 55.848C224.324 54.808 225.124 54.016 226.132 53.472C227.14 52.912 228.268 52.632 229.516 52.632C230.764 52.632 231.892 52.912 232.9 53.472C233.908 54.016 234.7 54.8 235.276 55.824C235.868 56.848 236.164 58.04 236.164 59.4C236.164 60.76 235.86 61.96 235.252 63C234.66 64.024 233.852 64.816 232.828 65.376C231.804 65.936 230.668 66.216 229.42 66.216ZM229.42 64.296C230.204 64.296 230.94 64.112 231.628 63.744C232.316 63.376 232.868 62.824 233.284 62.088C233.716 61.352 233.932 60.456 233.932 59.4C233.932 58.344 233.724 57.448 233.308 56.712C232.892 55.976 232.348 55.432 231.676 55.08C231.004 54.712 230.276 54.528 229.492 54.528C228.692 54.528 227.956 54.712 227.284 55.08C226.628 55.432 226.1 55.976 225.7 56.712C225.3 57.448 225.1 58.344 225.1 59.4C225.1 60.472 225.292 61.376 225.676 62.112C226.076 62.848 226.604 63.4 227.26 63.768C227.916 64.12 228.636 64.296 229.42 64.296ZM243.692 66.216C242.684 66.216 241.78 66.048 240.98 65.712C240.18 65.36 239.548 64.88 239.084 64.272C238.62 63.648 238.364 62.936 238.316 62.136H240.572C240.636 62.792 240.94 63.328 241.484 63.744C242.044 64.16 242.772 64.368 243.668 64.368C244.5 64.368 245.156 64.184 245.636 63.816C246.116 63.448 246.356 62.984 246.356 62.424C246.356 61.848 246.1 61.424 245.588 61.152C245.076 60.864 244.284 60.584 243.212 60.312C242.236 60.056 241.436 59.8 240.812 59.544C240.204 59.272 239.676 58.88 239.228 58.368C238.796 57.84 238.58 57.152 238.58 56.304C238.58 55.632 238.78 55.016 239.18 54.456C239.58 53.896 240.148 53.456 240.884 53.136C241.62 52.8 242.46 52.632 243.404 52.632C244.86 52.632 246.036 53 246.932 53.736C247.828 54.472 248.308 55.48 248.372 56.76H246.188C246.14 56.072 245.86 55.52 245.348 55.104C244.852 54.688 244.18 54.48 243.332 54.48C242.548 54.48 241.924 54.648 241.46 54.984C240.996 55.32 240.764 55.76 240.764 56.304C240.764 56.736 240.9 57.096 241.172 57.384C241.46 57.656 241.812 57.88 242.228 58.056C242.66 58.216 243.252 58.4 244.004 58.608C244.948 58.864 245.716 59.12 246.308 59.376C246.9 59.616 247.404 59.984 247.82 60.48C248.252 60.976 248.476 61.624 248.492 62.424C248.492 63.144 248.292 63.792 247.892 64.368C247.492 64.944 246.924 65.4 246.188 65.736C245.468 66.056 244.636 66.216 243.692 66.216Z" fill="#F72D57"/>
<defs>
<filter id="filter0_d_40_595" x="0" y="0" width="330" height="116" filterUnits="userSpaceOnUse" color-interpolation-filters="sRGB">
<feFlood flood-opacity="0" result="BackgroundImageFix"/>
<feColorMatrix in="SourceAlpha" type="matrix" values="0 0 0 0 0 0 0 0 0 0 0 0 0 0 0 0 0 0 127 0" result="hardAlpha"/>
<feOffset/>
<feGaussianBlur stdDeviation="7.5"/>
<feComposite in2="hardAlpha" operator="out"/>
<feColorMatrix type="matrix" values="0 0 0 0 0 0 0 0 0 0 0 0 0 0 0 0 0 0 0.15 0"/>
<feBlend mode="normal" in2="BackgroundImageFix" result="effect1_dropShadow_40_595"/>
<feBlend mode="normal" in="SourceGraphic" in2="effect1_dropShadow_40_595" result="shape"/>
</filter>
</defs>
</svg>
