<svg width="148" height="36" viewBox="0 0 148 36" fill="none" xmlns="http://www.w3.org/2000/svg">
<path d="M23.75 23.25L29.6632 17.3368C30.008 16.9921 30.4173 16.7187 30.8677 16.5323C31.3181 16.3458 31.8008 16.2499 32.2882 16.25H32.5C33.4283 16.25 34.3185 16.6187 34.9749 17.2751C35.6313 17.9315 36 18.8217 36 19.75C36 20.6783 35.6313 21.5685 34.9749 22.2249C34.3185 22.8813 33.4283 23.25 32.5 23.25H4.5C3.57174 23.25 2.6815 22.8813 2.02513 22.2249C1.36875 21.5685 1 20.6783 1 19.75C1 18.8217 1.36875 17.9315 2.02513 17.2751C2.6815 16.6187 3.57174 16.25 4.5 16.25H12.4013C15.1855 16.2501 17.8558 17.3561 19.8247 19.3247L23.75 23.25ZM2.75 23.25H34.25V26.75C34.25 28.1424 33.6969 29.4777 32.7123 30.4623C31.7277 31.4469 30.3924 32 29 32H8C6.60761 32 5.27226 31.4469 4.28769 30.4623C3.30312 29.4777 2.75 28.1424 2.75 26.75V23.25Z" stroke="#F72D57" stroke-width="2" stroke-linecap="round" stroke-linejoin="round"/>
<path d="M18.5018 11H18.5M18.5 4C10.4098 4 3.74401 7.073 2.85151 14.5C2.73601 15.4625 3.53401 16.25 4.50001 16.25H32.5C33.466 16.25 34.264 15.4625 34.1485 14.5C33.256 7.073 26.5903 4 18.5 4ZM9.75176 11H9.75001H9.75176ZM23.7518 9.25H23.75H23.7518Z" stroke="#F72D57" stroke-width="2" stroke-linecap="round" stroke-linejoin="round"/>
<path d="M66.224 17.384C66.832 17.48 67.384 17.728 67.88 18.128C68.392 18.528 68.792 19.024 69.08 19.616C69.384 20.208 69.536 20.84 69.536 21.512C69.536 22.36 69.32 23.128 68.888 23.816C68.456 24.488 67.824 25.024 66.992 25.424C66.176 25.808 65.208 26 64.088 26H57.848V9.272H63.848C64.984 9.272 65.952 9.464 66.752 9.848C67.552 10.216 68.152 10.72 68.552 11.36C68.952 12 69.152 12.72 69.152 13.52C69.152 14.512 68.88 15.336 68.336 15.992C67.808 16.632 67.104 17.096 66.224 17.384ZM60.032 16.496H63.704C64.728 16.496 65.52 16.256 66.08 15.776C66.64 15.296 66.92 14.632 66.92 13.784C66.92 12.936 66.64 12.272 66.08 11.792C65.52 11.312 64.712 11.072 63.656 11.072H60.032V16.496ZM63.896 24.2C64.984 24.2 65.832 23.944 66.44 23.432C67.048 22.92 67.352 22.208 67.352 21.296C67.352 20.368 67.032 19.64 66.392 19.112C65.752 18.568 64.896 18.296 63.824 18.296H60.032V24.2H63.896ZM84.2308 12.848V26H82.0468V24.056C81.6308 24.728 81.0468 25.256 80.2948 25.64C79.5588 26.008 78.7428 26.192 77.8468 26.192C76.8228 26.192 75.9028 25.984 75.0868 25.568C74.2708 25.136 73.6228 24.496 73.1428 23.648C72.6788 22.8 72.4468 21.768 72.4468 20.552V12.848H74.6068V20.264C74.6068 21.56 74.9348 22.56 75.5908 23.264C76.2468 23.952 77.1428 24.296 78.2788 24.296C79.4468 24.296 80.3668 23.936 81.0388 23.216C81.7108 22.496 82.0468 21.448 82.0468 20.072V12.848H84.2308ZM90.1023 14.984C90.4863 14.232 91.0303 13.648 91.7343 13.232C92.4543 12.816 93.3263 12.608 94.3503 12.608V14.864H93.7743C91.3263 14.864 90.1023 16.192 90.1023 18.848V26H87.9183V12.848H90.1023V14.984ZM102.295 12.632C103.431 12.632 104.423 12.88 105.271 13.376C106.135 13.872 106.775 14.496 107.191 15.248V12.848H109.399V26.288C109.399 27.488 109.143 28.552 108.631 29.48C108.119 30.424 107.383 31.16 106.423 31.688C105.479 32.216 104.375 32.48 103.111 32.48C101.383 32.48 99.9434 32.072 98.7914 31.256C97.6394 30.44 96.9594 29.328 96.7514 27.92H98.9114C99.1514 28.72 99.6474 29.36 100.399 29.84C101.151 30.336 102.055 30.584 103.111 30.584C104.311 30.584 105.287 30.208 106.039 29.456C106.807 28.704 107.191 27.648 107.191 26.288V23.528C106.759 24.296 106.119 24.936 105.271 25.448C104.423 25.96 103.431 26.216 102.295 26.216C101.127 26.216 100.063 25.928 99.1034 25.352C98.1594 24.776 97.4154 23.968 96.8714 22.928C96.3274 21.888 96.0554 20.704 96.0554 19.376C96.0554 18.032 96.3274 16.856 96.8714 15.848C97.4154 14.824 98.1594 14.032 99.1034 13.472C100.063 12.912 101.127 12.632 102.295 12.632ZM107.191 19.4C107.191 18.408 106.991 17.544 106.591 16.808C106.191 16.072 105.647 15.512 104.959 15.128C104.287 14.728 103.543 14.528 102.727 14.528C101.911 14.528 101.167 14.72 100.495 15.104C99.8234 15.488 99.2874 16.048 98.8874 16.784C98.4874 17.52 98.2874 18.384 98.2874 19.376C98.2874 20.384 98.4874 21.264 98.8874 22.016C99.2874 22.752 99.8234 23.32 100.495 23.72C101.167 24.104 101.911 24.296 102.727 24.296C103.543 24.296 104.287 24.104 104.959 23.72C105.647 23.32 106.191 22.752 106.591 22.016C106.991 21.264 107.191 20.392 107.191 19.4ZM125.09 18.92C125.09 19.336 125.066 19.776 125.018 20.24H114.506C114.586 21.536 115.026 22.552 115.826 23.288C116.642 24.008 117.626 24.368 118.778 24.368C119.722 24.368 120.506 24.152 121.13 23.72C121.77 23.272 122.218 22.68 122.474 21.944H124.826C124.474 23.208 123.77 24.24 122.714 25.04C121.658 25.824 120.346 26.216 118.778 26.216C117.53 26.216 116.41 25.936 115.418 25.376C114.442 24.816 113.674 24.024 113.114 23C112.554 21.96 112.274 20.76 112.274 19.4C112.274 18.04 112.546 16.848 113.09 15.824C113.634 14.8 114.394 14.016 115.37 13.472C116.362 12.912 117.498 12.632 118.778 12.632C120.026 12.632 121.13 12.904 122.09 13.448C123.05 13.992 123.786 14.744 124.298 15.704C124.826 16.648 125.09 17.72 125.09 18.92ZM122.834 18.464C122.834 17.632 122.65 16.92 122.282 16.328C121.914 15.72 121.41 15.264 120.77 14.96C120.146 14.64 119.45 14.48 118.682 14.48C117.578 14.48 116.634 14.832 115.85 15.536C115.082 16.24 114.642 17.216 114.53 18.464H122.834ZM130.157 14.984C130.541 14.232 131.085 13.648 131.789 13.232C132.509 12.816 133.381 12.608 134.405 12.608V14.864H133.829C131.381 14.864 130.157 16.192 130.157 18.848V26H127.973V12.848H130.157V14.984ZM141.582 26.216C140.574 26.216 139.67 26.048 138.87 25.712C138.07 25.36 137.438 24.88 136.974 24.272C136.51 23.648 136.254 22.936 136.206 22.136H138.462C138.526 22.792 138.83 23.328 139.374 23.744C139.934 24.16 140.662 24.368 141.558 24.368C142.39 24.368 143.046 24.184 143.526 23.816C144.006 23.448 144.246 22.984 144.246 22.424C144.246 21.848 143.99 21.424 143.478 21.152C142.966 20.864 142.174 20.584 141.102 20.312C140.126 20.056 139.326 19.8 138.702 19.544C138.094 19.272 137.566 18.88 137.118 18.368C136.686 17.84 136.47 17.152 136.47 16.304C136.47 15.632 136.67 15.016 137.07 14.456C137.47 13.896 138.038 13.456 138.774 13.136C139.51 12.8 140.35 12.632 141.294 12.632C142.75 12.632 143.926 13 144.822 13.736C145.718 14.472 146.198 15.48 146.262 16.76H144.078C144.03 16.072 143.75 15.52 143.238 15.104C142.742 14.688 142.07 14.48 141.222 14.48C140.438 14.48 139.814 14.648 139.35 14.984C138.886 15.32 138.654 15.76 138.654 16.304C138.654 16.736 138.79 17.096 139.062 17.384C139.35 17.656 139.702 17.88 140.118 18.056C140.55 18.216 141.142 18.4 141.894 18.608C142.838 18.864 143.606 19.12 144.198 19.376C144.79 19.616 145.294 19.984 145.71 20.48C146.142 20.976 146.366 21.624 146.382 22.424C146.382 23.144 146.182 23.792 145.782 24.368C145.382 24.944 144.814 25.4 144.078 25.736C143.358 26.056 142.526 26.216 141.582 26.216Z" fill="#F72D57"/>
</svg>
