<svg width="330" height="116" viewBox="0 0 330 116" fill="none" xmlns="http://www.w3.org/2000/svg">
<g filter="url(#filter0_d_40_83)">
<rect x="15" y="15" width="300" height="86" rx="5" fill="#F72D57"/>
</g>
<path d="M155.099 55.168C155.099 56.56 154.619 57.72 153.659 58.648C152.715 59.56 151.267 60.016 149.315 60.016H146.099V67H143.915V50.272H149.315C151.203 50.272 152.635 50.728 153.611 51.64C154.603 52.552 155.099 53.728 155.099 55.168ZM149.315 58.216C150.531 58.216 151.427 57.952 152.003 57.424C152.579 56.896 152.867 56.144 152.867 55.168C152.867 53.104 151.683 52.072 149.315 52.072H146.099V58.216H149.315ZM158.941 51.712C158.525 51.712 158.173 51.568 157.885 51.28C157.597 50.992 157.453 50.64 157.453 50.224C157.453 49.808 157.597 49.456 157.885 49.168C158.173 48.88 158.525 48.736 158.941 48.736C159.341 48.736 159.677 48.88 159.949 49.168C160.237 49.456 160.381 49.808 160.381 50.224C160.381 50.64 160.237 50.992 159.949 51.28C159.677 51.568 159.341 51.712 158.941 51.712ZM159.997 53.848V67H157.813V53.848H159.997ZM165.352 65.2H171.808V67H162.856V65.2L169.24 55.624H162.904V53.848H171.76V55.624L165.352 65.2ZM176.273 65.2H182.729V67H173.777V65.2L180.161 55.624H173.825V53.848H182.681V55.624L176.273 65.2ZM184.747 60.376C184.747 59.032 185.019 57.856 185.563 56.848C186.107 55.824 186.851 55.032 187.795 54.472C188.755 53.912 189.819 53.632 190.987 53.632C192.139 53.632 193.139 53.88 193.987 54.376C194.835 54.872 195.467 55.496 195.883 56.248V53.848H198.091V67H195.883V64.552C195.451 65.32 194.803 65.96 193.939 66.472C193.091 66.968 192.099 67.216 190.963 67.216C189.795 67.216 188.739 66.928 187.795 66.352C186.851 65.776 186.107 64.968 185.563 63.928C185.019 62.888 184.747 61.704 184.747 60.376ZM195.883 60.4C195.883 59.408 195.683 58.544 195.283 57.808C194.883 57.072 194.339 56.512 193.651 56.128C192.979 55.728 192.235 55.528 191.419 55.528C190.603 55.528 189.859 55.72 189.187 56.104C188.515 56.488 187.979 57.048 187.579 57.784C187.179 58.52 186.979 59.384 186.979 60.376C186.979 61.384 187.179 62.264 187.579 63.016C187.979 63.752 188.515 64.32 189.187 64.72C189.859 65.104 190.603 65.296 191.419 65.296C192.235 65.296 192.979 65.104 193.651 64.72C194.339 64.32 194.883 63.752 195.283 63.016C195.683 62.264 195.883 61.392 195.883 60.4ZM206.438 67.216C205.43 67.216 204.526 67.048 203.726 66.712C202.926 66.36 202.294 65.88 201.83 65.272C201.366 64.648 201.11 63.936 201.062 63.136H203.318C203.382 63.792 203.686 64.328 204.23 64.744C204.79 65.16 205.518 65.368 206.414 65.368C207.246 65.368 207.902 65.184 208.382 64.816C208.862 64.448 209.102 63.984 209.102 63.424C209.102 62.848 208.846 62.424 208.334 62.152C207.822 61.864 207.03 61.584 205.958 61.312C204.982 61.056 204.182 60.8 203.558 60.544C202.95 60.272 202.422 59.88 201.974 59.368C201.542 58.84 201.326 58.152 201.326 57.304C201.326 56.632 201.526 56.016 201.926 55.456C202.326 54.896 202.894 54.456 203.63 54.136C204.366 53.8 205.206 53.632 206.15 53.632C207.606 53.632 208.782 54 209.678 54.736C210.574 55.472 211.054 56.48 211.118 57.76H208.934C208.886 57.072 208.606 56.52 208.094 56.104C207.598 55.688 206.926 55.48 206.078 55.48C205.294 55.48 204.67 55.648 204.206 55.984C203.742 56.32 203.51 56.76 203.51 57.304C203.51 57.736 203.646 58.096 203.918 58.384C204.206 58.656 204.558 58.88 204.974 59.056C205.406 59.216 205.998 59.4 206.75 59.608C207.694 59.864 208.462 60.12 209.054 60.376C209.646 60.616 210.15 60.984 210.566 61.48C210.998 61.976 211.222 62.624 211.238 63.424C211.238 64.144 211.038 64.792 210.638 65.368C210.238 65.944 209.67 66.4 208.934 66.736C208.214 67.056 207.382 67.216 206.438 67.216Z" fill="white"/>
<path d="M118.118 46.8564C113.882 45.1304 109.436 44.3834 104.533 44.3834C99.6304 44.3834 94.8444 45.2053 90.9359 46.8198C90.198 47.1212 89.5423 47.6417 90.0163 48.6006C90.4007 49.3795 99.6934 69.8616 103.224 77.1671C103.343 77.4139 103.529 77.6221 103.761 77.7679C103.993 77.9136 104.261 77.9909 104.535 77.9909C104.809 77.9909 105.078 77.9136 105.309 77.7679C105.541 77.6221 105.728 77.4139 105.847 77.1671L119.001 48.6553C119.292 48.0252 119.083 47.249 118.118 46.8564V46.8564Z" stroke="white" stroke-width="2" stroke-miterlimit="10"/>
<path d="M121.006 43.167C116.251 41.2858 110.393 40 104.533 40C98.6734 40 92.9038 41.1671 88.0484 43.1122C87.6201 43.2875 86.8174 43.692 87.0375 44.3724L87.9215 46.575C88.2867 47.3238 88.7132 47.3238 89.2967 47.3238C89.4602 47.3238 89.6885 47.2325 89.9615 47.1247C94.6081 45.3199 99.5486 44.3904 104.533 44.3833C109.717 44.3833 115.027 45.4792 119.108 47.1229C119.436 47.2508 119.618 47.322 119.773 47.322C120.374 47.322 120.721 47.522 121.143 46.5823L122.035 44.3833C122.218 43.8354 121.579 43.3953 121.006 43.167Z" stroke="white" stroke-width="2" stroke-miterlimit="10"/>
<path d="M98.6889 56.0722C100.303 56.0722 101.611 54.7639 101.611 53.15C101.611 51.5361 100.303 50.2278 98.6889 50.2278C97.075 50.2278 95.7667 51.5361 95.7667 53.15C95.7667 54.7639 97.075 56.0722 98.6889 56.0722Z" fill="white"/>
<path d="M110.378 57.5334C111.992 57.5334 113.3 56.2251 113.3 54.6112C113.3 52.9973 111.992 51.689 110.378 51.689C108.764 51.689 107.456 52.9973 107.456 54.6112C107.456 56.2251 108.764 57.5334 110.378 57.5334Z" fill="white"/>
<path d="M104.533 67.7611C106.147 67.7611 107.456 66.4528 107.456 64.8389C107.456 63.225 106.147 61.9167 104.533 61.9167C102.919 61.9167 101.611 63.225 101.611 64.8389C101.611 66.4528 102.919 67.7611 104.533 67.7611Z" fill="white"/>
<defs>
<filter id="filter0_d_40_83" x="0" y="0" width="330" height="116" filterUnits="userSpaceOnUse" color-interpolation-filters="sRGB">
<feFlood flood-opacity="0" result="BackgroundImageFix"/>
<feColorMatrix in="SourceAlpha" type="matrix" values="0 0 0 0 0 0 0 0 0 0 0 0 0 0 0 0 0 0 127 0" result="hardAlpha"/>
<feOffset/>
<feGaussianBlur stdDeviation="7.5"/>
<feComposite in2="hardAlpha" operator="out"/>
<feColorMatrix type="matrix" values="0 0 0 0 0 0 0 0 0 0 0 0 0 0 0 0 0 0 0.15 0"/>
<feBlend mode="normal" in2="BackgroundImageFix" result="effect1_dropShadow_40_83"/>
<feBlend mode="normal" in="SourceGraphic" in2="effect1_dropShadow_40_83" result="shape"/>
</filter>
</defs>
</svg>
