<svg width="330" height="116" viewBox="0 0 330 116" fill="none" xmlns="http://www.w3.org/2000/svg">
<g filter="url(#filter0_d_40_594)">
<rect x="15" y="15" width="300" height="86" rx="5" fill="white"/>
</g>
<path d="M107.769 47.1973C108.442 45.9527 109.447 44.919 110.672 44.211C111.897 43.503 113.295 43.1483 114.709 43.1864C116.124 43.2245 117.5 43.6538 118.685 44.4267C119.87 45.1996 120.818 46.2858 121.423 47.5649C119.83 47.601 118.282 48.1004 116.968 49.0021C115.653 49.9038 114.63 51.1688 114.023 52.6424C113.464 51.7094 112.793 50.8478 112.026 50.0763C110.793 48.8663 109.351 47.8907 107.769 47.1973ZM129.795 56.3133C129.92 54.4462 129.403 52.5926 128.33 51.0596C127.257 49.5266 125.692 48.4063 123.895 47.8842C123.306 46.0162 122.173 44.3665 120.641 43.1458C119.109 41.9252 117.247 41.1892 115.295 41.0318C113.343 40.8745 111.388 41.303 109.68 42.2625C107.972 43.222 106.59 44.669 105.708 46.4185C104.838 46.148 103.952 45.9317 103.055 45.771C101.538 45.4979 99.9985 45.3653 98.4569 45.375C98.3227 45.3775 98.1885 45.3818 98.0544 45.3881H98.0456C97.7782 45.4042 97.5259 45.5177 97.3365 45.7072C97.1471 45.8966 97.0336 46.1489 97.0175 46.4163V46.4185C96.9994 46.9091 96.9987 47.4002 97.0153 47.8908C97.0437 48.7856 97.1378 50.0282 97.3916 51.4326C97.6606 52.9246 98.1156 54.6354 98.89 56.3111H98.0938C97.8037 56.3111 97.5255 56.4263 97.3204 56.6315C97.1152 56.8366 97 57.1148 97 57.4049V58.4988C97 63.1404 98.8437 67.5919 102.126 70.874C105.408 74.1561 109.859 76 114.5 76C119.141 76 123.592 74.1561 126.874 70.874C130.156 67.5919 132 63.1404 132 58.4988V57.4049C132 57.1148 131.885 56.8366 131.68 56.6315C131.475 56.4263 131.196 56.3111 130.906 56.3111H129.795V56.3133ZM101.34 56.3133C100.391 54.6025 99.8481 52.7277 99.5463 51.0454C99.3397 49.8967 99.2212 48.7338 99.1919 47.567L99.4412 47.5758C100.255 47.6042 101.388 47.6917 102.666 47.9236C105.247 48.3896 108.279 49.4222 110.479 51.623C111.827 52.9705 112.739 54.6332 113.352 56.3133H109.486L105.431 52.2574C105.329 52.1558 105.208 52.0753 105.075 52.0204C104.943 51.9655 104.8 51.9373 104.657 51.9374C104.513 51.9375 104.371 51.9659 104.238 52.021C104.105 52.0761 103.985 52.1568 103.883 52.2585C103.781 52.3602 103.701 52.4809 103.646 52.6137C103.591 52.7465 103.563 52.8889 103.563 53.0326C103.563 53.1763 103.591 53.3186 103.647 53.4513C103.702 53.5841 103.782 53.7047 103.884 53.8062L106.393 56.3133H101.34ZM115.664 56.3133C115.644 56.2541 115.625 56.195 115.605 56.1361C115.557 55.3108 115.68 54.4845 115.966 53.7088C116.252 52.9331 116.695 52.2247 117.266 51.6278C117.838 51.0308 118.527 50.5581 119.29 50.2392C120.052 49.9203 120.873 49.762 121.699 49.7743C122.526 49.7865 123.341 49.9689 124.094 50.3102C124.847 50.6515 125.521 51.1443 126.075 51.7579C126.629 52.3714 127.051 53.0926 127.314 53.8764C127.577 54.6602 127.675 55.4897 127.603 56.3133H115.666H115.664ZM99.1875 58.5009H129.812C129.812 60.0214 129.592 61.4893 129.178 62.8763H99.8219C99.3999 61.4562 99.1863 59.9824 99.1875 58.5009ZM114.5 73.8145C111.602 73.8151 108.763 72.9932 106.313 71.4441C103.864 69.8951 101.904 67.6827 100.662 65.0639H128.338C127.096 67.6827 125.136 69.8951 122.687 71.4441C120.237 72.9932 117.398 73.8151 114.5 73.8145Z" fill="#F72D57"/>
<path d="M159.152 66.168C158.048 66.168 157.056 65.976 156.176 65.592C155.312 65.192 154.632 64.648 154.136 63.96C153.64 63.256 153.384 62.448 153.368 61.536H155.696C155.776 62.32 156.096 62.984 156.656 63.528C157.232 64.056 158.064 64.32 159.152 64.32C160.192 64.32 161.008 64.064 161.6 63.552C162.208 63.024 162.512 62.352 162.512 61.536C162.512 60.896 162.336 60.376 161.984 59.976C161.632 59.576 161.192 59.272 160.664 59.064C160.136 58.856 159.424 58.632 158.528 58.392C157.424 58.104 156.536 57.816 155.864 57.528C155.208 57.24 154.64 56.792 154.16 56.184C153.696 55.56 153.464 54.728 153.464 53.688C153.464 52.776 153.696 51.968 154.16 51.264C154.624 50.56 155.272 50.016 156.104 49.632C156.952 49.248 157.92 49.056 159.008 49.056C160.576 49.056 161.856 49.448 162.848 50.232C163.856 51.016 164.424 52.056 164.552 53.352H162.152C162.072 52.712 161.736 52.152 161.144 51.672C160.552 51.176 159.768 50.928 158.792 50.928C157.88 50.928 157.136 51.168 156.56 51.648C155.984 52.112 155.696 52.768 155.696 53.616C155.696 54.224 155.864 54.72 156.2 55.104C156.552 55.488 156.976 55.784 157.472 55.992C157.984 56.184 158.696 56.408 159.608 56.664C160.712 56.968 161.6 57.272 162.272 57.576C162.944 57.864 163.52 58.32 164 58.944C164.48 59.552 164.72 60.384 164.72 61.44C164.72 62.256 164.504 63.024 164.072 63.744C163.64 64.464 163 65.048 162.152 65.496C161.304 65.944 160.304 66.168 159.152 66.168ZM167.118 59.376C167.118 58.032 167.39 56.856 167.934 55.848C168.478 54.824 169.222 54.032 170.166 53.472C171.126 52.912 172.19 52.632 173.358 52.632C174.51 52.632 175.51 52.88 176.358 53.376C177.206 53.872 177.838 54.496 178.254 55.248V52.848H180.462V66H178.254V63.552C177.822 64.32 177.174 64.96 176.31 65.472C175.462 65.968 174.47 66.216 173.334 66.216C172.166 66.216 171.11 65.928 170.166 65.352C169.222 64.776 168.478 63.968 167.934 62.928C167.39 61.888 167.118 60.704 167.118 59.376ZM178.254 59.4C178.254 58.408 178.054 57.544 177.654 56.808C177.254 56.072 176.71 55.512 176.022 55.128C175.35 54.728 174.606 54.528 173.79 54.528C172.974 54.528 172.23 54.72 171.558 55.104C170.886 55.488 170.35 56.048 169.95 56.784C169.55 57.52 169.35 58.384 169.35 59.376C169.35 60.384 169.55 61.264 169.95 62.016C170.35 62.752 170.886 63.32 171.558 63.72C172.23 64.104 172.974 64.296 173.79 64.296C174.606 64.296 175.35 64.104 176.022 63.72C176.71 63.32 177.254 62.752 177.654 62.016C178.054 61.264 178.254 60.392 178.254 59.4ZM186.337 48.24V66H184.153V48.24H186.337ZM189.243 59.376C189.243 58.032 189.515 56.856 190.059 55.848C190.603 54.824 191.347 54.032 192.291 53.472C193.251 52.912 194.315 52.632 195.483 52.632C196.635 52.632 197.635 52.88 198.483 53.376C199.331 53.872 199.963 54.496 200.379 55.248V52.848H202.587V66H200.379V63.552C199.947 64.32 199.299 64.96 198.435 65.472C197.587 65.968 196.595 66.216 195.459 66.216C194.291 66.216 193.235 65.928 192.291 65.352C191.347 64.776 190.603 63.968 190.059 62.928C189.515 61.888 189.243 60.704 189.243 59.376ZM200.379 59.4C200.379 58.408 200.179 57.544 199.779 56.808C199.379 56.072 198.835 55.512 198.147 55.128C197.475 54.728 196.731 54.528 195.915 54.528C195.099 54.528 194.355 54.72 193.683 55.104C193.011 55.488 192.475 56.048 192.075 56.784C191.675 57.52 191.475 58.384 191.475 59.376C191.475 60.384 191.675 61.264 192.075 62.016C192.475 62.752 193.011 63.32 193.683 63.72C194.355 64.104 195.099 64.296 195.915 64.296C196.731 64.296 197.475 64.104 198.147 63.72C198.835 63.32 199.379 62.752 199.779 62.016C200.179 61.264 200.379 60.392 200.379 59.4ZM205.462 59.376C205.462 58.032 205.734 56.856 206.278 55.848C206.822 54.824 207.566 54.032 208.51 53.472C209.47 52.912 210.542 52.632 211.726 52.632C212.75 52.632 213.702 52.872 214.582 53.352C215.462 53.816 216.134 54.432 216.598 55.2V48.24H218.806V66H216.598V63.528C216.166 64.312 215.526 64.96 214.678 65.472C213.83 65.968 212.838 66.216 211.702 66.216C210.534 66.216 209.47 65.928 208.51 65.352C207.566 64.776 206.822 63.968 206.278 62.928C205.734 61.888 205.462 60.704 205.462 59.376ZM216.598 59.4C216.598 58.408 216.398 57.544 215.998 56.808C215.598 56.072 215.054 55.512 214.366 55.128C213.694 54.728 212.95 54.528 212.134 54.528C211.318 54.528 210.574 54.72 209.902 55.104C209.23 55.488 208.694 56.048 208.294 56.784C207.894 57.52 207.694 58.384 207.694 59.376C207.694 60.384 207.894 61.264 208.294 62.016C208.694 62.752 209.23 63.32 209.902 63.72C210.574 64.104 211.318 64.296 212.134 64.296C212.95 64.296 213.694 64.104 214.366 63.72C215.054 63.32 215.598 62.752 215.998 62.016C216.398 61.264 216.598 60.392 216.598 59.4ZM227.152 66.216C226.144 66.216 225.24 66.048 224.44 65.712C223.64 65.36 223.008 64.88 222.544 64.272C222.08 63.648 221.824 62.936 221.776 62.136H224.032C224.096 62.792 224.4 63.328 224.944 63.744C225.504 64.16 226.232 64.368 227.128 64.368C227.96 64.368 228.616 64.184 229.096 63.816C229.576 63.448 229.816 62.984 229.816 62.424C229.816 61.848 229.56 61.424 229.048 61.152C228.536 60.864 227.744 60.584 226.672 60.312C225.696 60.056 224.896 59.8 224.272 59.544C223.664 59.272 223.136 58.88 222.688 58.368C222.256 57.84 222.04 57.152 222.04 56.304C222.04 55.632 222.24 55.016 222.64 54.456C223.04 53.896 223.608 53.456 224.344 53.136C225.08 52.8 225.92 52.632 226.864 52.632C228.32 52.632 229.496 53 230.392 53.736C231.288 54.472 231.768 55.48 231.832 56.76H229.648C229.6 56.072 229.32 55.52 228.808 55.104C228.312 54.688 227.64 54.48 226.792 54.48C226.008 54.48 225.384 54.648 224.92 54.984C224.456 55.32 224.224 55.76 224.224 56.304C224.224 56.736 224.36 57.096 224.632 57.384C224.92 57.656 225.272 57.88 225.688 58.056C226.12 58.216 226.712 58.4 227.464 58.608C228.408 58.864 229.176 59.12 229.768 59.376C230.36 59.616 230.864 59.984 231.28 60.48C231.712 60.976 231.936 61.624 231.952 62.424C231.952 63.144 231.752 63.792 231.352 64.368C230.952 64.944 230.384 65.4 229.648 65.736C228.928 66.056 228.096 66.216 227.152 66.216Z" fill="#F72D57"/>
<defs>
<filter id="filter0_d_40_594" x="0" y="0" width="330" height="116" filterUnits="userSpaceOnUse" color-interpolation-filters="sRGB">
<feFlood flood-opacity="0" result="BackgroundImageFix"/>
<feColorMatrix in="SourceAlpha" type="matrix" values="0 0 0 0 0 0 0 0 0 0 0 0 0 0 0 0 0 0 127 0" result="hardAlpha"/>
<feOffset/>
<feGaussianBlur stdDeviation="7.5"/>
<feComposite in2="hardAlpha" operator="out"/>
<feColorMatrix type="matrix" values="0 0 0 0 0 0 0 0 0 0 0 0 0 0 0 0 0 0 0.15 0"/>
<feBlend mode="normal" in2="BackgroundImageFix" result="effect1_dropShadow_40_594"/>
<feBlend mode="normal" in="SourceGraphic" in2="effect1_dropShadow_40_594" result="shape"/>
</filter>
</defs>
</svg>
